<?xml version="1.0" encoding="UTF-8"?>
<svg xmlns="http://www.w3.org/2000/svg" xmlns:xlink="http://www.w3.org/1999/xlink" width="56px" height="56px" viewBox="0 0 56 56" version="1.1">
<g id="surface1">
<rect x="0" y="0" width="56" height="56" style="fill:rgb(100%,100%,100%);fill-opacity:1;stroke:none;"/>
<path style=" stroke:none;fill-rule:nonzero;fill:rgb(80.392157%,83.921569%,97.647059%);fill-opacity:1;" d="M 6.277344 11.519531 C 6.359375 11.273438 6.699219 11.273438 6.789062 11.519531 L 7.679688 14.253906 C 7.707031 14.371094 7.816406 14.445312 7.933594 14.445312 L 10.804688 14.445312 C 11.070312 14.445312 11.179688 14.78125 10.964844 14.925781 L 8.640625 16.625 C 8.546875 16.691406 8.503906 16.816406 8.539062 16.925781 L 9.429688 19.660156 C 9.507812 19.90625 9.222656 20.109375 9.019531 19.957031 L 6.6875 18.265625 C 6.589844 18.199219 6.46875 18.199219 6.371094 18.265625 L 4.039062 19.957031 C 3.835938 20.109375 3.550781 19.90625 3.632812 19.660156 L 4.519531 16.925781 C 4.558594 16.816406 4.511719 16.691406 4.417969 16.625 L 2.09375 14.925781 C 1.882812 14.78125 1.992188 14.445312 2.253906 14.445312 L 5.132812 14.445312 C 5.242188 14.445312 5.351562 14.371094 5.386719 14.253906 Z M 6.277344 11.519531 "/>
<path style=" stroke:none;fill-rule:nonzero;fill:rgb(80.392157%,83.921569%,97.647059%);fill-opacity:1;" d="M 49.722656 11.519531 C 49.640625 11.273438 49.300781 11.273438 49.210938 11.519531 L 48.320312 14.253906 C 48.292969 14.371094 48.183594 14.445312 48.066406 14.445312 L 45.195312 14.445312 C 44.929688 14.445312 44.820312 14.78125 45.035156 14.925781 L 47.359375 16.625 C 47.453125 16.691406 47.496094 16.816406 47.460938 16.925781 L 46.570312 19.660156 C 46.492188 19.90625 46.777344 20.109375 46.980469 19.957031 L 49.3125 18.265625 C 49.410156 18.199219 49.53125 18.199219 49.628906 18.265625 L 51.960938 19.957031 C 52.164062 20.109375 52.449219 19.90625 52.367188 19.660156 L 51.480469 16.925781 C 51.441406 16.816406 51.488281 16.691406 51.582031 16.625 L 53.90625 14.925781 C 54.117188 14.78125 54.007812 14.445312 53.746094 14.445312 L 50.875 14.445312 C 50.757812 14.445312 50.648438 14.371094 50.617188 14.253906 Z M 49.722656 11.519531 "/>
<path style=" stroke:none;fill-rule:nonzero;fill:rgb(80.392157%,83.921569%,97.647059%);fill-opacity:1;" d="M 15.667969 3.472656 C 15.75 3.222656 16.101562 3.222656 16.179688 3.472656 L 17.070312 6.207031 C 17.105469 6.316406 17.207031 6.394531 17.324219 6.394531 L 20.207031 6.394531 C 20.460938 6.394531 20.570312 6.722656 20.359375 6.875 L 18.03125 8.566406 C 17.9375 8.640625 17.894531 8.757812 17.929688 8.875 L 18.820312 11.609375 C 18.898438 11.855469 18.621094 12.058594 18.410156 11.90625 L 16.078125 10.214844 C 15.984375 10.148438 15.859375 10.148438 15.765625 10.214844 L 13.4375 11.90625 C 13.226562 12.058594 12.941406 11.855469 13.023438 11.609375 L 13.914062 8.875 C 13.949219 8.757812 13.914062 8.640625 13.816406 8.566406 L 11.484375 6.875 C 11.273438 6.722656 11.382812 6.394531 11.644531 6.394531 L 14.523438 6.394531 C 14.640625 6.394531 14.742188 6.316406 14.78125 6.207031 Z M 15.667969 3.472656 "/>
<path style=" stroke:none;fill-rule:nonzero;fill:rgb(80.392157%,83.921569%,97.647059%);fill-opacity:1;" d="M 40.332031 3.472656 C 40.25 3.222656 39.898438 3.222656 39.820312 3.472656 L 38.929688 6.207031 C 38.894531 6.316406 38.792969 6.394531 38.675781 6.394531 L 35.792969 6.394531 C 35.539062 6.394531 35.429688 6.722656 35.640625 6.875 L 37.96875 8.566406 C 38.0625 8.640625 38.105469 8.757812 38.070312 8.875 L 37.179688 11.609375 C 37.101562 11.855469 37.378906 12.058594 37.589844 11.90625 L 39.921875 10.214844 C 40.015625 10.148438 40.140625 10.148438 40.234375 10.214844 L 42.5625 11.90625 C 42.773438 12.058594 43.058594 11.855469 42.976562 11.609375 L 42.085938 8.875 C 42.050781 8.757812 42.085938 8.640625 42.183594 8.566406 L 44.515625 6.875 C 44.726562 6.722656 44.617188 6.394531 44.355469 6.394531 L 41.476562 6.394531 C 41.359375 6.394531 41.257812 6.316406 41.21875 6.207031 Z M 40.332031 3.472656 "/>
<path style=" stroke:none;fill-rule:nonzero;fill:rgb(80.392157%,83.921569%,97.647059%);fill-opacity:1;" d="M 27.746094 0.789062 C 27.824219 0.539062 28.175781 0.539062 28.253906 0.789062 L 29.144531 3.523438 C 29.179688 3.632812 29.285156 3.710938 29.398438 3.710938 L 32.28125 3.710938 C 32.535156 3.710938 32.644531 4.039062 32.433594 4.191406 L 30.105469 5.882812 C 30.011719 5.957031 29.976562 6.074219 30.011719 6.183594 L 30.902344 8.925781 C 30.980469 9.171875 30.699219 9.378906 30.488281 9.222656 L 28.160156 7.53125 C 28.066406 7.464844 27.933594 7.464844 27.839844 7.53125 L 25.511719 9.222656 C 25.300781 9.378906 25.019531 9.171875 25.097656 8.925781 L 25.988281 6.183594 C 26.023438 6.074219 25.988281 5.957031 25.894531 5.882812 L 23.566406 4.191406 C 23.355469 4.039062 23.464844 3.710938 23.71875 3.710938 L 26.601562 3.710938 C 26.714844 3.710938 26.820312 3.632812 26.855469 3.523438 Z M 27.746094 0.789062 "/>
<path style=" stroke:none;fill-rule:nonzero;fill:rgb(1.568627%,19.607843%,87.45098%);fill-opacity:1;" d="M 28 11.230469 C 39.519531 11.230469 49.246094 20.957031 49.246094 32.476562 C 49.246094 43.996094 39.519531 53.726562 28 53.726562 C 16.480469 53.726562 6.753906 43.996094 6.753906 32.476562 C 6.753906 20.957031 16.480469 11.230469 28 11.230469 Z M 28 21.851562 C 24.332031 21.851562 21.628906 24.558594 21.628906 28.226562 C 21.628906 31.902344 24.332031 34.597656 28 34.597656 C 31.667969 34.597656 34.371094 31.902344 34.371094 28.226562 C 34.371094 24.558594 31.667969 21.851562 28 21.851562 Z M 38.851562 42.621094 C 36.945312 39.8125 33.769531 37.9375 30.121094 37.9375 L 25.878906 37.9375 C 22.230469 37.9375 19.054688 39.8125 17.148438 42.621094 C 19.863281 45.523438 23.71875 47.351562 28 47.351562 C 32.28125 47.351562 36.128906 45.523438 38.851562 42.621094 Z M 38.851562 42.621094 "/>
</g>
</svg>
