<?xml version="1.0" encoding="UTF-8"?>
<svg xmlns="http://www.w3.org/2000/svg" xmlns:xlink="http://www.w3.org/1999/xlink" width="56px" height="56px" viewBox="0 0 56 56" version="1.1">
<g id="surface1">
<rect x="0" y="0" width="56" height="56" style="fill:rgb(100%,100%,100%);fill-opacity:1;stroke:none;"/>
<path style=" stroke:none;fill-rule:nonzero;fill:rgb(1.568627%,19.607843%,87.45098%);fill-opacity:1;" d="M 47.59375 14.792969 L 38.222656 23.042969 L 29.875 12.769531 C 29.640625 12.476562 29.347656 12.25 29.011719 12.089844 C 28.679688 11.929688 28.3125 11.855469 27.941406 11.855469 C 27.570312 11.863281 27.207031 11.949219 26.878906 12.113281 C 26.542969 12.277344 26.25 12.511719 26.023438 12.804688 L 18.0625 23.035156 L 8.394531 14.679688 C 8.011719 14.351562 7.539062 14.144531 7.042969 14.09375 C 6.539062 14.042969 6.039062 14.136719 5.601562 14.378906 C 5.164062 14.621094 4.804688 14.992188 4.578125 15.445312 C 4.351562 15.886719 4.273438 16.398438 4.347656 16.894531 L 7.480469 41.847656 L 48.519531 41.847656 L 51.652344 17.011719 C 51.726562 16.507812 51.648438 15.996094 51.421875 15.546875 C 51.195312 15.09375 50.835938 14.722656 50.394531 14.480469 C 49.949219 14.242188 49.445312 14.144531 48.941406 14.195312 C 48.4375 14.253906 47.972656 14.464844 47.59375 14.792969 Z M 47.59375 14.792969 "/>
<path style=" stroke:none;fill-rule:nonzero;fill:rgb(80.392157%,83.921569%,97.647059%);fill-opacity:1;" d="M 7.480469 45.003906 L 48.519531 45.003906 L 48.519531 48.160156 C 48.519531 49.035156 47.8125 49.742188 46.945312 49.742188 L 9.054688 49.742188 C 8.1875 49.742188 7.480469 49.035156 7.480469 48.160156 Z M 7.480469 45.003906 "/>
<path style=" stroke:none;fill-rule:nonzero;fill:rgb(80.392157%,83.921569%,97.647059%);fill-opacity:1;" d="M 7.671875 1.648438 C 7.757812 1.378906 8.128906 1.378906 8.21875 1.648438 L 9.488281 5.554688 C 9.53125 5.671875 9.640625 5.753906 9.761719 5.753906 L 13.875 5.753906 C 14.152344 5.753906 14.269531 6.109375 14.042969 6.269531 L 10.71875 8.691406 C 10.617188 8.765625 10.574219 8.894531 10.609375 9.011719 L 11.886719 12.921875 C 11.964844 13.191406 11.667969 13.410156 11.441406 13.242188 L 8.117188 10.828125 C 8.011719 10.753906 7.875 10.753906 7.78125 10.828125 L 4.449219 13.242188 C 4.222656 13.410156 3.921875 13.191406 4.011719 12.921875 L 5.277344 9.011719 C 5.316406 8.894531 5.277344 8.765625 5.175781 8.691406 L 1.84375 6.269531 C 1.625 6.109375 1.734375 5.753906 2.011719 5.753906 L 6.132812 5.753906 C 6.257812 5.753906 6.367188 5.671875 6.402344 5.554688 Z M 7.671875 1.648438 "/>
<path style=" stroke:none;fill-rule:nonzero;fill:rgb(80.392157%,83.921569%,97.647059%);fill-opacity:1;" d="M 27.730469 1.648438 C 27.808594 1.378906 28.191406 1.378906 28.269531 1.648438 L 29.546875 5.554688 C 29.582031 5.671875 29.691406 5.753906 29.816406 5.753906 L 33.929688 5.753906 C 34.207031 5.753906 34.320312 6.109375 34.097656 6.269531 L 30.769531 8.691406 C 30.667969 8.765625 30.625 8.894531 30.667969 9.011719 L 31.9375 12.921875 C 32.023438 13.191406 31.71875 13.410156 31.5 13.242188 L 28.167969 10.828125 C 28.066406 10.753906 27.933594 10.753906 27.832031 10.828125 L 24.5 13.242188 C 24.28125 13.410156 23.976562 13.191406 24.0625 12.921875 L 25.332031 9.011719 C 25.375 8.894531 25.332031 8.765625 25.230469 8.691406 L 21.902344 6.269531 C 21.679688 6.109375 21.792969 5.753906 22.070312 5.753906 L 26.183594 5.753906 C 26.308594 5.753906 26.417969 5.671875 26.453125 5.554688 Z M 27.730469 1.648438 "/>
<path style=" stroke:none;fill-rule:nonzero;fill:rgb(80.392157%,83.921569%,97.647059%);fill-opacity:1;" d="M 47.78125 1.648438 C 47.871094 1.378906 48.242188 1.378906 48.328125 1.648438 L 49.597656 5.554688 C 49.632812 5.671875 49.742188 5.753906 49.867188 5.753906 L 53.988281 5.753906 C 54.265625 5.753906 54.375 6.109375 54.15625 6.269531 L 50.824219 8.691406 C 50.722656 8.765625 50.683594 8.894531 50.722656 9.011719 L 51.988281 12.921875 C 52.078125 13.191406 51.777344 13.410156 51.550781 13.242188 L 48.21875 10.828125 C 48.125 10.753906 47.988281 10.753906 47.882812 10.828125 L 44.558594 13.242188 C 44.332031 13.410156 44.035156 13.191406 44.113281 12.921875 L 45.390625 9.011719 C 45.425781 8.894531 45.382812 8.765625 45.28125 8.691406 L 41.957031 6.269531 C 41.730469 6.109375 41.847656 5.753906 42.125 5.753906 L 46.238281 5.753906 C 46.359375 5.753906 46.46875 5.671875 46.511719 5.554688 Z M 47.78125 1.648438 "/>
</g>
</svg>
