<?xml version="1.0" encoding="UTF-8"?>
<svg xmlns="http://www.w3.org/2000/svg" xmlns:xlink="http://www.w3.org/1999/xlink" width="56px" height="56px" viewBox="0 0 56 56" version="1.1">
<g id="surface1">
<rect x="0" y="0" width="56" height="56" style="fill:rgb(100%,100%,100%);fill-opacity:1;stroke:none;"/>
<path style=" stroke:none;fill-rule:nonzero;fill:rgb(80.392157%,83.921569%,97.647059%);fill-opacity:1;" d="M 45.996094 15.65625 C 45.996094 14.152344 45.398438 12.714844 44.339844 11.660156 C 43.285156 10.601562 41.847656 10.003906 40.34375 10.003906 L 37.777344 10.003906 C 36.289062 10.003906 34.863281 9.414062 33.804688 8.363281 L 32.003906 6.5625 C 31.476562 6.039062 30.859375 5.621094 30.164062 5.332031 C 29.480469 5.046875 28.742188 4.898438 28 4.898438 C 27.257812 4.898438 26.519531 5.046875 25.835938 5.332031 C 25.140625 5.621094 24.523438 6.039062 23.996094 6.5625 L 22.195312 8.363281 C 21.136719 9.414062 19.710938 10.003906 18.222656 10.003906 L 15.65625 10.003906 C 14.152344 10.003906 12.714844 10.601562 11.660156 11.660156 C 10.601562 12.714844 10.003906 14.152344 10.003906 15.65625 L 10.003906 18.222656 C 10.003906 19.710938 9.414062 21.136719 8.363281 22.195312 L 6.5625 23.996094 C 6.039062 24.523438 5.621094 25.140625 5.332031 25.835938 C 5.046875 26.519531 4.898438 27.257812 4.898438 28 C 4.898438 28.742188 5.046875 29.480469 5.332031 30.164062 C 5.621094 30.859375 6.039062 31.476562 6.5625 32.003906 L 8.363281 33.804688 C 9.414062 34.863281 10.003906 36.289062 10.003906 37.777344 L 10.003906 40.34375 C 10.003906 41.847656 10.601562 43.285156 11.660156 44.339844 C 12.714844 45.398438 14.152344 45.996094 15.65625 45.996094 L 18.222656 45.996094 C 19.710938 45.996094 21.136719 46.585938 22.195312 47.636719 L 23.996094 49.4375 C 24.523438 49.960938 25.140625 50.378906 25.835938 50.667969 C 26.519531 50.953125 27.257812 51.101562 28 51.101562 C 28.742188 51.101562 29.480469 50.953125 30.164062 50.667969 C 30.859375 50.378906 31.476562 49.960938 32.003906 49.4375 L 33.804688 47.636719 C 34.863281 46.585938 36.289062 45.996094 37.777344 45.996094 L 40.34375 45.996094 C 41.847656 45.996094 43.285156 45.398438 44.339844 44.339844 C 45.398438 43.285156 45.996094 41.847656 45.996094 40.34375 L 45.996094 37.777344 C 45.996094 36.289062 46.585938 34.863281 47.636719 33.804688 L 49.4375 32.003906 C 49.960938 31.476562 50.378906 30.859375 50.667969 30.164062 C 50.953125 29.480469 51.101562 28.742188 51.101562 28 C 51.101562 27.257812 50.953125 26.519531 50.667969 25.835938 C 50.378906 25.140625 49.960938 24.523438 49.4375 23.996094 L 47.636719 22.195312 C 46.585938 21.136719 45.996094 19.710938 45.996094 18.222656 Z M 45.996094 15.65625 "/>
<path style=" stroke:none;fill-rule:nonzero;fill:rgb(1.568627%,19.607843%,87.45098%);fill-opacity:1;" d="M 49.460938 15.65625 C 49.460938 17.566406 47.90625 19.117188 45.996094 19.117188 C 44.078125 19.117188 42.53125 17.566406 42.53125 15.65625 Z M 40.34375 10.003906 L 40.34375 6.539062 Z M 37.777344 10.003906 L 37.777344 13.46875 Z M 33.804688 8.363281 L 31.363281 10.820312 L 31.355469 10.8125 Z M 32.003906 6.5625 L 29.554688 9.011719 L 29.546875 9.003906 Z M 28 4.898438 L 28 1.4375 Z M 23.996094 6.5625 L 26.453125 9.003906 L 26.445312 9.011719 Z M 22.195312 8.363281 L 24.644531 10.8125 L 24.636719 10.820312 Z M 18.222656 10.003906 L 18.222656 13.46875 Z M 15.65625 10.003906 L 15.65625 6.539062 Z M 10.003906 18.222656 L 13.46875 18.222656 Z M 8.363281 22.195312 L 10.820312 24.636719 L 10.8125 24.644531 Z M 6.5625 23.996094 L 9.011719 26.445312 L 9.003906 26.453125 Z M 6.5625 32.003906 L 9.003906 29.546875 L 9.011719 29.554688 Z M 8.363281 33.804688 L 10.8125 31.355469 L 10.820312 31.363281 Z M 10.003906 37.777344 L 13.46875 37.777344 Z M 18.222656 45.996094 L 18.222656 42.53125 Z M 22.195312 47.636719 L 24.636719 45.179688 L 24.644531 45.1875 Z M 23.996094 49.4375 L 26.445312 46.988281 L 26.453125 46.996094 Z M 32.003906 49.4375 L 29.546875 46.996094 L 29.554688 46.988281 Z M 33.804688 47.636719 L 31.355469 45.1875 L 31.363281 45.179688 Z M 37.777344 45.996094 L 37.777344 42.53125 Z M 45.996094 40.34375 L 49.460938 40.34375 Z M 45.996094 37.777344 L 42.53125 37.777344 Z M 47.636719 33.804688 L 45.179688 31.363281 L 45.1875 31.355469 Z M 49.4375 32.003906 L 46.988281 29.554688 L 46.996094 29.546875 Z M 51.101562 28 L 54.5625 28 Z M 49.4375 23.996094 L 46.996094 26.453125 L 46.988281 26.445312 Z M 47.636719 22.195312 L 45.1875 24.644531 L 45.179688 24.636719 Z M 45.996094 18.222656 L 42.53125 18.222656 Z M 42.53125 15.65625 C 42.53125 13.738281 44.078125 12.183594 45.996094 12.183594 C 47.90625 12.183594 49.460938 13.738281 49.460938 15.65625 Z M 42.53125 15.65625 C 42.53125 15.070312 42.300781 14.519531 41.890625 14.109375 L 46.789062 9.210938 C 48.496094 10.914062 49.460938 13.234375 49.460938 15.65625 Z M 41.890625 14.109375 C 41.480469 13.699219 40.929688 13.46875 40.34375 13.46875 L 40.34375 6.539062 C 42.765625 6.539062 45.085938 7.503906 46.789062 9.210938 Z M 40.34375 13.46875 L 37.777344 13.46875 L 37.777344 6.539062 L 40.34375 6.539062 Z M 37.777344 13.46875 C 35.371094 13.46875 33.066406 12.511719 31.363281 10.820312 L 36.246094 5.90625 C 36.65625 6.316406 37.210938 6.539062 37.785156 6.539062 Z M 31.355469 10.8125 L 29.554688 9.011719 L 34.453125 4.113281 L 36.253906 5.914062 Z M 29.546875 9.003906 C 29.339844 8.800781 29.101562 8.640625 28.839844 8.53125 L 31.5 2.136719 C 32.609375 2.597656 33.613281 3.273438 34.460938 4.121094 Z M 28.839844 8.53125 C 28.574219 8.421875 28.285156 8.363281 28 8.363281 L 28 1.4375 C 29.203125 1.4375 30.390625 1.667969 31.5 2.136719 Z M 28 8.363281 C 27.714844 8.363281 27.425781 8.421875 27.160156 8.53125 L 24.5 2.136719 C 25.609375 1.667969 26.796875 1.4375 28 1.4375 Z M 27.160156 8.53125 C 26.898438 8.640625 26.660156 8.800781 26.453125 9.003906 L 21.539062 4.121094 C 22.386719 3.273438 23.390625 2.597656 24.5 2.136719 Z M 26.445312 9.011719 L 24.644531 10.8125 L 19.746094 5.914062 L 21.546875 4.113281 Z M 24.636719 10.820312 C 22.933594 12.511719 20.628906 13.46875 18.222656 13.46875 L 18.214844 6.539062 C 18.789062 6.539062 19.34375 6.316406 19.753906 5.90625 Z M 18.222656 13.46875 L 15.65625 13.46875 L 15.65625 6.539062 L 18.222656 6.539062 Z M 15.65625 13.46875 C 15.070312 13.46875 14.519531 13.699219 14.109375 14.109375 L 9.210938 9.210938 C 10.914062 7.503906 13.234375 6.539062 15.65625 6.539062 Z M 14.109375 14.109375 C 13.699219 14.519531 13.46875 15.070312 13.46875 15.65625 L 6.539062 15.65625 C 6.539062 13.234375 7.503906 10.914062 9.210938 9.210938 Z M 13.46875 15.65625 L 13.46875 18.222656 L 6.539062 18.222656 L 6.539062 15.65625 Z M 13.46875 18.222656 C 13.46875 20.628906 12.511719 22.933594 10.820312 24.636719 L 5.90625 19.753906 C 6.316406 19.34375 6.539062 18.789062 6.539062 18.214844 Z M 10.8125 24.644531 L 9.011719 26.445312 L 4.113281 21.546875 L 5.914062 19.746094 Z M 9.003906 26.453125 C 8.808594 26.660156 8.640625 26.898438 8.53125 27.160156 L 2.136719 24.5 C 2.597656 23.390625 3.273438 22.386719 4.121094 21.539062 Z M 8.53125 27.160156 C 8.421875 27.425781 8.363281 27.714844 8.363281 28 L 1.4375 28 C 1.4375 26.796875 1.667969 25.609375 2.136719 24.5 Z M 8.363281 28 C 8.363281 28.285156 8.421875 28.570312 8.53125 28.839844 L 2.136719 31.5 C 1.667969 30.390625 1.4375 29.203125 1.4375 28 Z M 8.53125 28.839844 C 8.640625 29.101562 8.808594 29.339844 9.003906 29.546875 L 4.121094 34.460938 C 3.273438 33.613281 2.597656 32.609375 2.136719 31.5 Z M 9.011719 29.554688 L 10.8125 31.355469 L 5.914062 36.253906 L 4.113281 34.453125 Z M 10.820312 31.363281 C 12.511719 33.066406 13.46875 35.371094 13.46875 37.777344 L 6.539062 37.785156 C 6.539062 37.210938 6.316406 36.65625 5.90625 36.246094 Z M 13.46875 37.777344 L 13.46875 40.34375 L 6.539062 40.34375 L 6.539062 37.777344 Z M 13.46875 40.34375 C 13.46875 40.929688 13.699219 41.480469 14.109375 41.890625 L 9.210938 46.789062 C 7.503906 45.085938 6.539062 42.765625 6.539062 40.34375 Z M 14.109375 41.890625 C 14.519531 42.300781 15.070312 42.53125 15.65625 42.53125 L 15.65625 49.460938 C 13.234375 49.460938 10.914062 48.496094 9.210938 46.789062 Z M 15.65625 42.53125 L 18.222656 42.53125 L 18.222656 49.460938 L 15.65625 49.460938 Z M 18.222656 42.53125 C 20.628906 42.53125 22.933594 43.488281 24.636719 45.179688 L 19.753906 50.09375 C 19.34375 49.683594 18.789062 49.460938 18.214844 49.460938 Z M 24.644531 45.1875 L 26.445312 46.988281 L 21.546875 51.886719 L 19.746094 50.085938 Z M 26.453125 46.996094 C 26.660156 47.191406 26.898438 47.359375 27.160156 47.46875 L 24.5 53.863281 C 23.390625 53.402344 22.386719 52.726562 21.539062 51.878906 Z M 27.160156 47.46875 C 27.429688 47.578125 27.714844 47.636719 28 47.636719 L 28 54.5625 C 26.796875 54.5625 25.609375 54.332031 24.5 53.863281 Z M 28 47.636719 C 28.285156 47.636719 28.574219 47.578125 28.839844 47.46875 L 31.5 53.863281 C 30.390625 54.332031 29.203125 54.5625 28 54.5625 Z M 28.839844 47.46875 C 29.101562 47.359375 29.339844 47.191406 29.546875 46.996094 L 34.460938 51.878906 C 33.613281 52.726562 32.609375 53.402344 31.5 53.863281 Z M 29.554688 46.988281 L 31.355469 45.1875 L 36.253906 50.085938 L 34.453125 51.886719 Z M 31.363281 45.179688 C 33.066406 43.488281 35.371094 42.53125 37.777344 42.53125 L 37.785156 49.460938 C 37.210938 49.460938 36.65625 49.683594 36.246094 50.09375 Z M 37.777344 42.53125 L 40.34375 42.53125 L 40.34375 49.460938 L 37.777344 49.460938 Z M 40.34375 42.53125 C 40.929688 42.53125 41.480469 42.300781 41.890625 41.890625 L 46.789062 46.789062 C 45.085938 48.496094 42.765625 49.460938 40.34375 49.460938 Z M 41.890625 41.890625 C 42.300781 41.480469 42.53125 40.929688 42.53125 40.34375 L 49.460938 40.34375 C 49.460938 42.765625 48.496094 45.085938 46.789062 46.789062 Z M 42.53125 40.34375 L 42.53125 37.777344 L 49.460938 37.777344 L 49.460938 40.34375 Z M 42.53125 37.777344 C 42.53125 35.371094 43.488281 33.066406 45.179688 31.363281 L 50.09375 36.246094 C 49.683594 36.65625 49.460938 37.210938 49.460938 37.785156 Z M 45.1875 31.355469 L 46.988281 29.554688 L 51.886719 34.453125 L 50.085938 36.253906 Z M 46.996094 29.546875 C 47.199219 29.339844 47.359375 29.101562 47.46875 28.839844 L 53.863281 31.5 C 53.402344 32.609375 52.726562 33.613281 51.878906 34.460938 Z M 47.46875 28.839844 C 47.578125 28.574219 47.636719 28.285156 47.636719 28 L 54.5625 28 C 54.5625 29.203125 54.332031 30.390625 53.863281 31.5 Z M 47.636719 28 C 47.636719 27.714844 47.578125 27.425781 47.46875 27.160156 L 53.863281 24.5 C 54.332031 25.609375 54.5625 26.796875 54.5625 28 Z M 47.46875 27.160156 C 47.359375 26.898438 47.199219 26.660156 46.996094 26.453125 L 51.878906 21.539062 C 52.726562 22.386719 53.402344 23.390625 53.863281 24.5 Z M 46.988281 26.445312 L 45.1875 24.644531 L 50.085938 19.746094 L 51.886719 21.546875 Z M 45.179688 24.636719 C 43.488281 22.933594 42.53125 20.628906 42.53125 18.222656 L 49.460938 18.214844 C 49.460938 18.789062 49.683594 19.34375 50.09375 19.753906 Z M 42.53125 18.222656 L 42.53125 15.65625 L 49.460938 15.65625 L 49.460938 18.222656 Z M 42.53125 18.222656 "/>
<path style=" stroke:none;fill-rule:nonzero;fill:rgb(0%,0%,0%);fill-opacity:1;" d="M 15.894531 28.09375 L 15.894531 32.097656 L 13.367188 32.097656 L 13.367188 22.925781 L 19.949219 22.925781 L 19.949219 24.097656 L 15.894531 24.097656 L 15.894531 26.933594 L 19.03125 26.933594 L 19.03125 28.09375 Z M 27.015625 25.390625 L 25.804688 27.394531 C 25.753906 27.226562 25.6875 27.039062 25.609375 26.824219 C 25.527344 26.613281 25.433594 26.410156 25.308594 26.226562 C 25.191406 26.046875 25.046875 25.886719 24.886719 25.761719 C 24.71875 25.636719 24.527344 25.570312 24.308594 25.570312 C 24.113281 25.570312 23.9375 25.621094 23.792969 25.726562 C 23.648438 25.828125 23.523438 25.964844 23.421875 26.125 C 23.320312 26.285156 23.230469 26.476562 23.164062 26.679688 C 23.101562 26.882812 23.050781 27.097656 23.011719 27.308594 C 22.976562 27.511719 22.953125 27.714844 22.941406 27.914062 C 22.933594 28.101562 22.925781 28.269531 22.925781 28.410156 L 22.925781 32.097656 L 20.757812 32.097656 L 20.757812 24.742188 L 21.589844 24.742188 L 22.464844 26.453125 C 22.582031 26.175781 22.722656 25.921875 22.875 25.695312 C 23.027344 25.460938 23.203125 25.257812 23.398438 25.089844 C 23.601562 24.921875 23.828125 24.800781 24.078125 24.703125 C 24.332031 24.609375 24.617188 24.566406 24.9375 24.566406 C 25.097656 24.566406 25.289062 24.574219 25.492188 24.601562 C 25.695312 24.632812 25.894531 24.675781 26.089844 24.742188 C 26.285156 24.804688 26.460938 24.894531 26.628906 25.003906 C 26.796875 25.105469 26.929688 25.238281 27.015625 25.390625 Z M 29.496094 28.605469 C 29.757812 28.664062 30.027344 28.714844 30.289062 28.75 C 30.550781 28.78125 30.816406 28.800781 31.085938 28.800781 C 31.363281 28.800781 31.625 28.773438 31.863281 28.722656 C 32.105469 28.664062 32.308594 28.574219 32.492188 28.453125 C 32.667969 28.328125 32.804688 28.160156 32.90625 27.949219 C 33.007812 27.746094 33.058594 27.480469 33.058594 27.175781 C 33.058594 26.921875 33.023438 26.695312 32.957031 26.484375 C 32.886719 26.277344 32.789062 26.097656 32.652344 25.949219 C 32.519531 25.804688 32.351562 25.6875 32.164062 25.601562 C 31.964844 25.519531 31.742188 25.476562 31.476562 25.476562 C 31.238281 25.476562 31.019531 25.519531 30.828125 25.617188 C 30.632812 25.703125 30.464844 25.820312 30.320312 25.972656 C 30.171875 26.125 30.042969 26.300781 29.941406 26.496094 C 29.835938 26.695312 29.75 26.90625 29.683594 27.125 C 29.613281 27.335938 29.566406 27.554688 29.539062 27.78125 C 29.503906 28 29.488281 28.210938 29.488281 28.402344 C 29.488281 28.4375 29.488281 28.472656 29.488281 28.503906 C 29.488281 28.539062 29.496094 28.574219 29.496094 28.605469 Z M 34.804688 27.152344 C 34.804688 27.453125 34.753906 27.722656 34.65625 27.964844 C 34.5625 28.195312 34.425781 28.402344 34.257812 28.582031 C 34.089844 28.757812 33.898438 28.910156 33.679688 29.035156 C 33.453125 29.160156 33.222656 29.261719 32.972656 29.335938 C 32.71875 29.414062 32.460938 29.472656 32.191406 29.507812 C 31.929688 29.539062 31.675781 29.558594 31.417969 29.558594 C 31.097656 29.558594 30.785156 29.53125 30.480469 29.488281 C 30.164062 29.445312 29.859375 29.371094 29.558594 29.277344 C 29.605469 29.554688 29.683594 29.824219 29.785156 30.078125 C 29.886719 30.324219 30.019531 30.550781 30.195312 30.742188 C 30.363281 30.929688 30.574219 31.078125 30.820312 31.1875 C 31.070312 31.296875 31.363281 31.355469 31.703125 31.355469 C 31.929688 31.355469 32.140625 31.316406 32.347656 31.253906 C 32.550781 31.1875 32.730469 31.085938 32.90625 30.96875 C 33.074219 30.84375 33.226562 30.699219 33.351562 30.523438 C 33.484375 30.355469 33.59375 30.164062 33.671875 29.960938 L 34.597656 30.304688 C 34.460938 30.640625 34.269531 30.929688 34.023438 31.171875 C 33.78125 31.414062 33.503906 31.617188 33.199219 31.777344 C 32.886719 31.9375 32.558594 32.054688 32.214844 32.128906 C 31.871094 32.207031 31.523438 32.242188 31.1875 32.242188 C 30.625 32.242188 30.105469 32.148438 29.632812 31.960938 C 29.152344 31.769531 28.742188 31.507812 28.402344 31.171875 C 28.058594 30.828125 27.789062 30.421875 27.589844 29.953125 C 27.394531 29.480469 27.300781 28.960938 27.300781 28.402344 C 27.300781 27.839844 27.394531 27.328125 27.589844 26.855469 C 27.789062 26.382812 28.058594 25.980469 28.402344 25.636719 C 28.742188 25.300781 29.152344 25.03125 29.632812 24.84375 C 30.105469 24.652344 30.625 24.566406 31.1875 24.566406 C 31.457031 24.566406 31.734375 24.582031 32.019531 24.617188 C 32.300781 24.660156 32.578125 24.71875 32.847656 24.800781 C 33.117188 24.886719 33.367188 24.988281 33.605469 25.121094 C 33.847656 25.25 34.050781 25.417969 34.226562 25.609375 C 34.402344 25.804688 34.539062 26.023438 34.648438 26.277344 C 34.753906 26.535156 34.804688 26.824219 34.804688 27.152344 Z M 37.917969 28.605469 C 38.1875 28.664062 38.449219 28.714844 38.710938 28.75 C 38.972656 28.78125 39.238281 28.800781 39.507812 28.800781 C 39.785156 28.800781 40.046875 28.773438 40.285156 28.722656 C 40.527344 28.664062 40.730469 28.574219 40.914062 28.453125 C 41.089844 28.328125 41.226562 28.160156 41.328125 27.949219 C 41.429688 27.746094 41.480469 27.480469 41.480469 27.175781 C 41.480469 26.921875 41.445312 26.695312 41.378906 26.484375 C 41.316406 26.277344 41.210938 26.097656 41.074219 25.949219 C 40.941406 25.804688 40.773438 25.6875 40.585938 25.601562 C 40.386719 25.519531 40.164062 25.476562 39.898438 25.476562 C 39.660156 25.476562 39.441406 25.519531 39.25 25.617188 C 39.054688 25.703125 38.886719 25.820312 38.742188 25.972656 C 38.59375 26.125 38.464844 26.300781 38.363281 26.496094 C 38.257812 26.695312 38.171875 26.90625 38.105469 27.125 C 38.035156 27.335938 37.988281 27.554688 37.960938 27.78125 C 37.929688 28 37.917969 28.210938 37.917969 28.402344 C 37.917969 28.4375 37.917969 28.472656 37.917969 28.503906 C 37.917969 28.539062 37.917969 28.574219 37.917969 28.605469 Z M 43.226562 27.152344 C 43.226562 27.453125 43.179688 27.722656 43.078125 27.964844 C 42.984375 28.195312 42.851562 28.402344 42.683594 28.582031 C 42.519531 28.757812 42.320312 28.910156 42.101562 29.035156 C 41.875 29.160156 41.644531 29.261719 41.394531 29.335938 C 41.140625 29.414062 40.882812 29.472656 40.613281 29.507812 C 40.351562 29.539062 40.097656 29.558594 39.839844 29.558594 C 39.527344 29.558594 39.207031 29.53125 38.902344 29.488281 C 38.585938 29.445312 38.289062 29.371094 37.980469 29.277344 C 38.035156 29.554688 38.105469 29.824219 38.207031 30.078125 C 38.308594 30.324219 38.441406 30.550781 38.617188 30.742188 C 38.785156 30.929688 38.996094 31.078125 39.242188 31.1875 C 39.492188 31.296875 39.785156 31.355469 40.125 31.355469 C 40.351562 31.355469 40.5625 31.316406 40.769531 31.253906 C 40.972656 31.1875 41.160156 31.085938 41.328125 30.96875 C 41.496094 30.84375 41.648438 30.699219 41.78125 30.523438 C 41.90625 30.355469 42.015625 30.164062 42.09375 29.960938 L 43.019531 30.304688 C 42.882812 30.640625 42.691406 30.929688 42.445312 31.171875 C 42.203125 31.414062 41.925781 31.617188 41.621094 31.777344 C 41.308594 31.9375 40.988281 32.054688 40.636719 32.128906 C 40.292969 32.207031 39.949219 32.242188 39.609375 32.242188 C 39.046875 32.242188 38.527344 32.148438 38.054688 31.960938 C 37.582031 31.769531 37.164062 31.507812 36.824219 31.171875 C 36.480469 30.828125 36.210938 30.421875 36.011719 29.953125 C 35.816406 29.480469 35.722656 28.960938 35.722656 28.402344 C 35.722656 27.839844 35.816406 27.328125 36.011719 26.855469 C 36.210938 26.382812 36.480469 25.980469 36.824219 25.636719 C 37.164062 25.300781 37.582031 25.03125 38.054688 24.84375 C 38.527344 24.652344 39.046875 24.566406 39.609375 24.566406 C 39.878906 24.566406 40.15625 24.582031 40.441406 24.617188 C 40.722656 24.660156 41 24.71875 41.269531 24.800781 C 41.539062 24.886719 41.789062 24.988281 42.027344 25.121094 C 42.269531 25.25 42.472656 25.417969 42.648438 25.609375 C 42.824219 25.804688 42.96875 26.023438 43.070312 26.277344 C 43.175781 26.535156 43.226562 26.824219 43.226562 27.152344 Z M 43.226562 27.152344 "/>
</g>
</svg>
