<svg width="170" height="27" viewBox="0 0 170 27" fill="none" xmlns="http://www.w3.org/2000/svg">
<g id="WavesCo">
<path d="M35.5037 1.14853L28.4392 25.9305H22.4615L17.7156 8.28487L12.7523 25.9305L6.81091 25.966L0 1.14853C0 1.14853 3.37461 0.647216 5.43424 1.14853C13.0656 3.006 2.03141 20.137 9.89032 20.3918C17.813 20.6487 7.34725 3.04391 15.0347 1.14853C17.1751 0.620804 18.5478 0.613523 20.6863 1.14853C28.3001 3.05331 17.6842 20.4204 25.5409 20.2853C33.3647 20.1507 22.4432 3.01348 30.0332 1.14853C32.1054 0.639366 35.5037 1.14853 35.5037 1.14853Z" fill="white"/>
<path d="M36.7867 16.0248C36.7867 14.0366 37.1852 12.2732 37.9822 10.7347C38.8034 9.19615 39.9023 8.01267 41.279 7.18424C42.6798 6.35581 44.2376 5.94159 45.9524 5.94159C47.4499 5.94159 48.7541 6.23746 49.8651 6.8292C51.0003 7.42094 51.906 8.16653 52.5822 9.06596C52.5822 9.06596 52.0359 7.21672 52.5822 6.26113C53.5573 4.55559 57.6904 6.26113 57.6904 6.26113V25.9305H52.5822V23.0546C51.9301 23.9777 51.0244 24.747 49.8651 25.3624C48.7299 25.9541 47.4137 26.25 45.9162 26.25C44.2256 26.25 42.6798 25.8239 41.279 24.9718C39.9023 24.1197 38.8034 22.9244 37.9822 21.3859C37.1852 19.8237 36.7867 18.0367 36.7867 16.0248ZM52.5822 16.0958C52.5822 16.0958 52.3407 13.859 51.8577 13.0069C51.3746 12.1312 50.7225 11.4684 49.9013 11.0187C49.0802 10.5453 48.1986 10.3086 47.2567 10.3086C46.3147 10.3086 45.4452 10.5335 44.6482 10.9832C43.8512 11.4329 43.1991 12.0957 42.6919 12.9714C42.2089 13.8235 41.9673 16.0248 41.9673 16.0248C41.9673 16.0248 42.2089 18.2497 42.6919 19.1492C43.1991 20.0249 43.8512 20.6995 44.6482 21.1729C45.4694 21.6463 46.3389 21.883 47.2567 21.883C48.1986 21.883 49.0802 21.6581 49.9013 21.2084C50.7225 20.735 51.3746 20.0723 51.8577 19.2202C52.3407 18.3444 52.5822 16.0958 52.5822 16.0958Z" fill="white"/>
<path d="M70.2882 21.3504C76.619 21.3504 69.2742 7.9695 75.3602 6.26113C77.3867 5.69227 80.7582 6.26113 80.7582 6.26113L73.3314 25.9305H67.1726L59.782 6.26113C59.782 6.26113 63.177 5.68524 65.2163 6.26113C71.2995 7.97908 63.9575 21.3504 70.2882 21.3504Z" fill="white"/>
<path d="M101.54 15.6697C101.54 16.3798 101.492 17.0189 101.395 17.587C101.298 18.155 86.6018 16.1668 86.7225 17.587C86.8433 19.0071 87.3505 20.1196 88.2441 20.9244C89.1378 21.7291 90.2367 22.1315 91.5409 22.1315C93.4248 22.1315 94.7652 21.3386 95.5622 19.7527C96.3593 18.1669 101.033 19.7527 101.033 19.7527C100.453 21.6463 99.3421 23.2085 97.6997 24.4393C96.0574 25.6464 94.0407 26.25 91.6496 26.25C89.7174 26.25 87.9785 25.8358 86.4327 25.0074C84.9111 24.1553 83.7156 22.9599 82.8461 21.4214C82.0008 19.8829 81.5781 18.1077 81.5781 16.0958C81.5781 14.0602 82.0008 12.2732 82.8461 10.7347C83.6915 9.19615 84.8749 8.01267 86.3965 7.18424C87.9181 6.35581 89.6691 5.94159 91.6496 5.94159C93.5576 5.94159 95.2603 6.34398 96.7578 7.14874C98.2794 7.9535 99.4507 9.10147 100.272 10.5926C101.117 12.0602 101.54 13.7525 101.54 15.6697ZM96.2868 14.2496C96.2627 12.9714 95.7917 11.9536 94.8739 11.1962C93.9561 10.4151 92.833 10.0246 91.5047 10.0246C90.2488 10.0246 89.1861 10.4033 88.3166 11.1607C87.4713 11.8945 86.952 12.9241 86.7588 14.2496C86.7588 14.2496 96.311 15.5277 96.2868 14.2496Z" fill="white"/>
<path d="M112.198 26.25C110.555 26.25 109.082 25.966 107.778 25.3979C106.474 24.8062 105.435 24.0132 104.662 23.0191C103.914 22.025 103.503 20.9244 103.431 19.7172C103.358 18.5101 108.442 18.9598 108.539 19.7172C108.635 20.4746 109.01 21.1019 109.662 21.599C110.338 22.096 112.162 22.3445 112.162 22.3445C112.162 22.3445 113.876 22.1552 114.408 21.7765C114.963 21.3978 115.241 20.9125 115.241 20.3208C115.241 19.6817 114.227 18.9006 114.227 18.9006L111.075 17.8355C111.075 17.8355 108.346 17.1136 107.379 16.7349C106.438 16.3562 105.616 15.7763 104.916 14.9952C104.24 14.2141 103.902 13.1608 103.902 11.8353C103.902 10.7465 104.216 9.75238 104.843 8.85294C105.496 7.9535 106.413 7.24342 107.597 6.72269C108.804 6.20196 110.217 5.94159 111.836 5.94159C114.227 5.94159 116.135 6.53333 117.56 7.71681C118.985 8.87661 119.77 10.4506 119.914 12.4389C120.059 14.4271 115.132 13.22 115.06 12.4389C114.987 11.6578 114.649 11.0424 114.045 10.5926C113.466 10.1193 111.691 9.88256 111.691 9.88256C111.691 9.88256 110.06 10.0482 109.553 10.3796C109.07 10.711 108.829 11.1725 108.829 11.7643C108.829 12.427 109.167 12.9359 109.843 13.291C110.519 13.6223 112.995 14.3206 112.995 14.3206C112.995 14.3206 115.64 15.0425 116.581 15.4212C117.523 15.7999 118.332 16.3917 119.009 17.1964C119.709 17.9775 120.071 19.019 120.096 20.3208C120.096 21.4569 119.77 22.4747 119.117 23.3742C118.489 24.2736 117.572 24.9837 116.364 25.5044C115.181 26.0015 113.792 26.25 112.198 26.25Z" fill="white"/>
<path d="M122.303 13.504C122.303 10.8743 122.858 8.88844 123.969 6.97122C125.104 5.03032 126.638 3.52731 128.57 2.46218C130.526 1.37339 132.712 0.828991 135.127 0.828991C137.953 0.828991 140.429 1.53908 142.554 2.95924C144.68 4.37941 146.165 6.34398 147.01 8.85294C147.856 11.3619 141.757 10.0364 141.178 8.85294C140.598 7.66947 139.777 6.78186 138.714 6.19012C137.676 5.59839 136.468 5.30252 135.091 5.30252C133.618 5.30252 132.302 5.64573 131.142 6.33214C130.007 6.99489 129.114 7.94166 128.461 9.17248C127.833 10.4033 127.52 13.504 127.52 13.504C127.52 13.504 127.833 16.581 128.461 17.8355C129.114 19.0663 130.007 20.0249 131.142 20.7113C132.302 21.3741 133.618 21.7055 135.091 21.7055C136.468 21.7055 137.676 21.4096 138.714 20.8179C139.777 20.2025 140.598 19.303 141.178 18.1195C141.757 16.9361 147.856 15.5869 147.01 18.1195C146.165 20.6522 144.68 22.6286 142.554 24.0487C140.453 25.4452 137.977 26.1435 135.127 26.1435C132.712 26.1435 130.526 25.6109 128.57 24.5458C126.638 23.457 125.104 21.954 123.969 20.0368C122.858 18.1195 122.303 16.1337 122.303 13.504Z" fill="white"/>
<path d="M159.53 26.25C157.598 26.25 155.859 25.8358 154.313 25.0074C152.767 24.1553 151.548 22.9599 150.654 21.4214C149.785 19.8829 149.35 18.1077 149.35 16.0958C149.35 14.0839 149.797 12.3087 150.69 10.7702C151.608 9.23165 152.852 8.04818 154.422 7.21975C155.992 6.36765 157.743 5.94159 159.675 5.94159C161.607 5.94159 163.358 6.36765 164.928 7.21975C166.498 8.04818 167.73 9.23165 168.623 10.7702C169.541 12.3087 170 14.0839 170 16.0958C170 18.1077 169.529 19.8829 168.587 21.4214C167.669 22.9599 166.413 24.1553 164.819 25.0074C163.249 25.8358 161.486 26.25 159.53 26.25ZM159.53 21.9185C159.53 21.9185 161.305 21.7055 162.102 21.2794C162.923 20.8297 163.576 20.1669 164.059 19.2912C164.542 18.4154 164.783 16.0958 164.783 16.0958C164.783 16.0958 164.276 12.7939 163.262 11.7998C162.271 10.782 159.602 10.2731 159.602 10.2731C159.602 10.2731 156.934 10.782 155.943 11.7998C154.977 12.7939 154.494 16.0958 154.494 16.0958C154.494 16.0958 154.965 19.4095 155.907 20.4273C156.873 21.4214 159.53 21.9185 159.53 21.9185Z" fill="white"/>
</g>
</svg>
