<svg width="41" height="40" viewBox="0 0 41 40" fill="none" xmlns="http://www.w3.org/2000/svg">
<g id="ri:double-quotes-r">
<g id="Group">
<path id="Vector" d="M32.8615 11.1317C34.5782 12.9551 35.4999 15.0001 35.4999 18.3151C35.4999 24.1484 31.4049 29.3768 25.4499 31.9618L23.9615 29.6651C29.5199 26.6584 30.6065 22.7568 31.0399 20.2968C30.1449 20.7601 28.9732 20.9218 27.8249 20.8151C24.8182 20.5367 22.4482 18.0684 22.4482 15.0001C22.4482 13.453 23.0628 11.9693 24.1567 10.8753C25.2507 9.78133 26.7344 9.16675 28.2815 9.16675C30.0699 9.16675 31.7799 9.98341 32.8615 11.1317ZM16.1949 11.1317C17.9115 12.9551 18.8332 15.0001 18.8332 18.3151C18.8332 24.1484 14.7382 29.3768 8.7832 31.9618L7.29487 29.6651C12.8532 26.6584 13.9399 22.7568 14.3732 20.2968C13.4782 20.7601 12.3065 20.9218 11.1582 20.8151C8.15154 20.5367 5.7832 18.0684 5.7832 15.0001C5.7832 13.453 6.39778 11.9693 7.49175 10.8753C8.58571 9.78133 10.0694 9.16675 11.6165 9.16675C13.4049 9.16675 15.1149 9.98341 16.1965 11.1317H16.1949Z" fill="#F59E00"/>
</g>
</g>
</svg>
