<svg width="36" height="37" viewBox="0 0 36 37" fill="none" xmlns="http://www.w3.org/2000/svg">
<g id="icon">
<rect id="Rectangle 6" x="6" y="28.5" width="24" height="2" rx="1" fill="#4C526A"/>
<path id="Union" fill-rule="evenodd" clip-rule="evenodd" d="M19 8.5C19 7.94772 18.5523 7.5 18 7.5C17.4477 7.5 17 7.94772 17 8.5V21.3258L11.6508 16.7407C11.2315 16.3813 10.6002 16.4299 10.2408 16.8492C9.88134 17.2685 9.9299 17.8998 10.3492 18.2593L17.0889 24.0361C17.6132 24.4855 18.3868 24.4855 18.9111 24.0361L25.6508 18.2593C26.0701 17.8998 26.1187 17.2685 25.7593 16.8492C25.3999 16.4299 24.7686 16.3813 24.3492 16.7407L19 21.3258V8.5Z" fill="#4C526A"/>
</g>
</svg>
